<svg id="Layer_1" data-name="Layer 1" xmlns="http://www.w3.org/2000/svg" viewBox="0 0 501.58 116.23"><defs><style>.cls-1{fill:#089bd5;}</style></defs><path class="cls-1" d="M60.62,144.3l-23.81-74H64.07l9.75,45.34L87,70.27h21.23l14.06,45.48,9.47-45.48H159l-23.81,74H112L97.21,101.55,83.15,144.3Z" transform="translate(-36.81 -30.37)"/><path class="cls-1" d="M158.59,144.3V30.62h26V79a21.12,21.12,0,0,1,8.54-8.1A26.58,26.58,0,0,1,205.79,68q12.48,0,19,8t6.53,23.31V144.3h-26V104.13q0-13-9.9-13c-3.54,0-6.24,1.21-8.1,3.65s-2.8,5.91-2.8,10.4V144.3Z" transform="translate(-36.81 -30.37)"/><path class="cls-1" d="M263.75,146.6a29.86,29.86,0,0,1-17-4.95,33.22,33.22,0,0,1-11.55-13.78,47.1,47.1,0,0,1-4.16-20.3,44.74,44.74,0,0,1,4.45-20.23,36.86,36.86,0,0,1,12.05-14.13A29.42,29.42,0,0,1,264.61,68a26.91,26.91,0,0,1,12.91,3.08,21.92,21.92,0,0,1,8.89,8.68l.29-9.47h24.53v74H286.7l-.29-9.47a22.6,22.6,0,0,1-9.18,8.68A28.57,28.57,0,0,1,263.75,146.6Zm8-23.1a13.72,13.72,0,0,0,10.62-4.59,16.67,16.67,0,0,0,4.16-11.62,16.64,16.64,0,0,0-4.16-11.7,14.92,14.92,0,0,0-21.38,0q-4.17,4.53-4.16,11.7A16.63,16.63,0,0,0,261,118.91,13.85,13.85,0,0,0,271.78,123.5Z" transform="translate(-36.81 -30.37)"/><path class="cls-1" d="M323.7,144.3V91.08H311.22V70.27H323.7V51.19h26V70.27h15.06V91.08H349.67V144.3Z" transform="translate(-36.81 -30.37)"/><path class="cls-1" d="M376.18,144.3V91.08H363.7V70.27h12.48V51.19h26V70.27h15.06V91.08H402.15V144.3Z" transform="translate(-36.81 -30.37)"/><path class="cls-1" d="M416.46,144.57a14.72,14.72,0,0,1-10.54-3.87,13,13,0,0,1-4.09-9.9,12.79,12.79,0,0,1,4.09-9.83A16.53,16.53,0,0,1,427,121a12.79,12.79,0,0,1,4.09,9.83,13,13,0,0,1-4.09,9.9A14.73,14.73,0,0,1,416.46,144.57Z" transform="translate(-36.81 -30.37)"/><path class="cls-1" d="M444.09,58.06a14.54,14.54,0,0,1-10.41-4,13,13,0,0,1-4.23-9.75,13.08,13.08,0,0,1,4.23-10,14.73,14.73,0,0,1,10.41-3.94,14.49,14.49,0,0,1,10.33,3.94,13.2,13.2,0,0,1,4.16,10A13.07,13.07,0,0,1,454.42,54,14.3,14.3,0,0,1,444.09,58.06ZM431,143.71v-74h26v74Z" transform="translate(-36.81 -30.37)"/><path class="cls-1" d="M497.64,146a42.42,42.42,0,0,1-20.95-5.09,38,38,0,0,1-14.49-14,38.69,38.69,0,0,1-5.31-20.23,38.68,38.68,0,0,1,5.31-20.22,37.91,37.91,0,0,1,14.57-14,45.42,45.42,0,0,1,41.82,0,38.2,38.2,0,0,1,14.49,13.91,38.7,38.7,0,0,1,5.3,20.3,38.78,38.78,0,0,1-5.3,20.23,37.91,37.91,0,0,1-14.57,14A42.46,42.46,0,0,1,497.64,146Zm0-23.09a13.72,13.72,0,0,0,10.62-4.59,16.68,16.68,0,0,0,4.16-11.63A16.59,16.59,0,0,0,508.26,95a14.9,14.9,0,0,0-21.38,0q-4.17,4.52-4.16,11.69a16.63,16.63,0,0,0,4.16,11.63A13.85,13.85,0,0,0,497.64,122.91Z" transform="translate(-36.81 -30.37)"/></svg>